<svg id="Vrstva_1" data-name="Vrstva 1" xmlns="http://www.w3.org/2000/svg" viewBox="0 0 22.79 22.79"><defs><style>.cls-1{fill:#fff;}.cls-2{fill:#f28a1f;}</style></defs><title>facebook ikona</title><rect class="cls-1" x="0.02" y="0.02" width="22.75" height="22.75" rx="1.25" ry="1.25"/><path class="cls-2" d="M4.36,6.73V27a1.25,1.25,0,0,0,1.25,1.25H16.49v-8.8h-3v-3.6h3v-3a4,4,0,0,1,4-4h3.1v3.23H21.35a1.26,1.26,0,0,0-1.26,1.27v2.49h3.42L23,19.47H20.09v8.8h5.8A1.25,1.25,0,0,0,27.14,27V6.73a1.25,1.25,0,0,0-1.25-1.25H5.61A1.25,1.25,0,0,0,4.36,6.73Zm0-1.25" transform="translate(-4.36 -5.48)"/></svg>