<svg id="Vrstva_1" data-name="Vrstva 1" xmlns="http://www.w3.org/2000/svg" viewBox="0 0 22.79 22.79"><defs><style>.cls-1{fill:#fff;}.cls-2{fill:#f28a1f;}</style></defs><title>google</title><rect class="cls-1" x="0.02" y="0.02" width="22.75" height="22.75" rx="1.25" ry="1.25"/><path class="cls-2" d="M13.86,7V27.27a1.25,1.25,0,0,0,1.25,1.25H35.39a1.25,1.25,0,0,0,1.25-1.25V7a1.25,1.25,0,0,0-1.25-1.25H15.11A1.25,1.25,0,0,0,13.86,7Zm13.28,11.1a4.56,4.56,0,0,1-4.77,4,5,5,0,1,1,0-10,4.8,4.8,0,0,1,3.38,1.31l-1.44,1.44a2.67,2.67,0,0,0-1.94-.75,3,3,0,0,0-3,3,3,3,0,0,0,3,3,2.53,2.53,0,0,0,2.71-2H22.37v-2h4.76a5.7,5.7,0,0,1,.08,1,6.36,6.36,0,0,1-.07,1Zm6-.62H31.42v1.76H30.16V17.46H28.4V16.21h1.76V14.44h1.26v1.77h1.76Zm0,0" transform="translate(-13.86 -5.73)"/></svg>