<svg id="Vrstva_1" data-name="Vrstva 1" xmlns="http://www.w3.org/2000/svg" viewBox="0 0 37.11 67.61"><defs><style>.cls-1,.cls-4{fill:#f28a1f;}.cls-10,.cls-2,.cls-6,.cls-8{fill:#fff;}.cls-3{fill:none;}.cls-3,.cls-4,.cls-5,.cls-7,.cls-8,.cls-9{stroke:#1a1a1a;}.cls-10,.cls-3,.cls-4,.cls-5,.cls-6,.cls-7,.cls-8,.cls-9{stroke-linecap:round;stroke-linejoin:round;}.cls-5,.cls-7{fill:#1a1a1a;}.cls-10,.cls-6{stroke:#fff;}.cls-6{stroke-width:0.71px;}.cls-7{stroke-width:0.5px;}.cls-9{fill:#7e4e24;}</style></defs><title>level1</title><path class="cls-1" d="M47.24,47.49a3.59,3.59,0,0,1-.69-1.74h0a3.89,3.89,0,0,1,1.32-2.81,5.37,5.37,0,0,0,1.64-5.12c-.47-2.17-2.36.19-4.71-.26-4-.77-7.5-2.11-7.5,1.42a5.41,5.41,0,0,0,1.83,4,3.71,3.71,0,0,1,1.25,2.74h0a3.57,3.57,0,0,1-.68,1.74c-.15.23-.77,1.08-1.52,2.11a16.13,16.13,0,0,0-3,12.25c0,.13.05.25.07.36h0a3,3,0,0,0,3,2.28H48.65a3,3,0,0,0,3-2.28h0c0-.11,0-.23.07-.36a16.13,16.13,0,0,0-3-12.25C48,48.57,47.39,47.72,47.24,47.49Z" transform="translate(-20.53 -7.3)"/><path class="cls-2" d="M48.94,63c0-.07,0-.15.05-.24a10.77,10.77,0,0,0-2-8.17c-.51-.69-.92-1.25-1-1.4A2.48,2.48,0,0,1,45.52,52a2.58,2.58,0,0,1,.89-1.88,3.56,3.56,0,0,0,1.13-2.2l-.3-.43a3.59,3.59,0,0,1-.69-1.74,3.83,3.83,0,0,1,.08-.68,4.07,4.07,0,0,0-2.27-1.28,4.31,4.31,0,0,0-4,1.28,3.83,3.83,0,0,1,.08.67h0a3.59,3.59,0,0,1-.69,1.74l-.3.42a3.6,3.6,0,0,0,1.18,2.25A2.49,2.49,0,0,1,41.41,52h0A2.37,2.37,0,0,1,41,53.16c-.1.15-.5.71-1,1.4a10.76,10.76,0,0,0-2,8.17c0,.09,0,.17,0,.24h0a2,2,0,0,0,2,1.52h6.91A2,2,0,0,0,48.94,63Z" transform="translate(-20.53 -7.3)"/><path class="cls-3" d="M47.24,47.49a3.59,3.59,0,0,1-.69-1.74h0a3.89,3.89,0,0,1,1.32-2.81,5.37,5.37,0,0,0,1.64-5.12c-.47-2.17-2.36.19-4.71-.26-4-.77-7.5-2.11-7.5,1.42a5.41,5.41,0,0,0,1.83,4,3.71,3.71,0,0,1,1.25,2.74h0a3.57,3.57,0,0,1-.68,1.74c-.15.23-.77,1.08-1.52,2.11a16.13,16.13,0,0,0-3,12.25c0,.13.05.25.07.36h0a3,3,0,0,0,3,2.28H48.65a3,3,0,0,0,3-2.28h0c0-.11,0-.23.07-.36a16.13,16.13,0,0,0-3-12.25C48,48.57,47.39,47.72,47.24,47.49Z" transform="translate(-20.53 -7.3)"/><path class="cls-4" d="M52,32.09a1.61,1.61,0,0,1-1.61,1.61,1.57,1.57,0,0,1-.74-.19,1.11,1.11,0,0,1-1.54.16,6.85,6.85,0,0,0-1.54,1,5.08,5.08,0,0,0-1,1.26l4,2.81a5.21,5.21,0,0,0,.52-.46c1.66-1.66,3.74-6.83,3.74-6.83S53.05,31.72,52,32.09Z" transform="translate(-20.53 -7.3)"/><path class="cls-4" d="M41.36,36.07a4.73,4.73,0,0,0-1-1.35c-1.66-1.66-7.76-3.22-7.76-3.22s2.49,5.17,4.15,6.83a6.14,6.14,0,0,0,.76.65" transform="translate(-20.53 -7.3)"/><path class="cls-1" d="M52.45,43.42c.12-.52-1.9-1.06-1.9-1.61,0-3.91-3.17-5.67-7.09-5.67s-7.09,1.76-7.09,5.67c0,.55-2.46,1.09-2.34,1.61,2.62.61,7.22,2.67,7.82,5.29a6.92,6.92,0,0,0,3.22,0C45.68,46.09,49.83,44,52.45,43.42Z" transform="translate(-20.53 -7.3)"/><path class="cls-2" d="M50.48,41.84a14.85,14.85,0,0,0-3.7,1.65,4.85,4.85,0,0,0-.61.49,4.11,4.11,0,0,0-.57.67,3.64,3.64,0,0,0-.53,1.22,7.1,7.1,0,0,1-1.61.19,7,7,0,0,1-1.6-.19c-.55-2.33-3-3.21-5.41-4,0,.32-.07-.36-.07,0,0,.55-2.47,1.09-2.35,1.61,2.62.61,7.22,2.67,7.83,5.29a7,7,0,0,0,1.6.19,7.1,7.1,0,0,0,1.61-.19c.61-2.62,4.76-4.68,7.38-5.29.12-.52-1.9-1.06-1.9-1.61C50.55,41.48,50.52,42.16,50.48,41.84Z" transform="translate(-20.53 -7.3)"/><path class="cls-3" d="M52.45,43.42c.12-.52-1.9-1.06-1.9-1.61,0-3.91-3.17-5.67-7.09-5.67a11.07,11.07,0,0,0-2.19.21,5.65,5.65,0,0,1-1.57-.58s-.26,1.14-.67,1.37a4.57,4.57,0,0,1-1.23.06s.14.72-.07.94a5.15,5.15,0,0,0-1.36,3.67c0,.55-2.46,1.09-2.34,1.61,2.62.61,7.22,2.67,7.82,5.29a6.92,6.92,0,0,0,3.22,0C45.68,46.09,49.83,44,52.45,43.42Z" transform="translate(-20.53 -7.3)"/><path class="cls-5" d="M40.63,41.1a.71.71,0,0,1-1.42,0C39.21,40.71,40.63,40.71,40.63,41.1Z" transform="translate(-20.53 -7.3)"/><ellipse class="cls-6" cx="18.68" cy="34.39" rx="0.49" ry="0.12"/><path class="cls-7" d="M44.17,45H42.75a.71.71,0,0,0-.71.71c0,.39,1.42,1.41,1.42,1.41s1.42-1,1.42-1.41A.71.71,0,0,0,44.17,45Z" transform="translate(-20.53 -7.3)"/><circle class="cls-5" cx="26.36" cy="33.81" r="0.71"/><ellipse class="cls-6" cx="27.32" cy="33.34" rx="0.49" ry="0.12"/><path class="cls-8" d="M50.94,37.39a1.28,1.28,0,0,0-2.36-1h0l-3.13-1.32h0a1.28,1.28,0,1,0-2.35-1,1.25,1.25,0,0,0,0,.91,1.28,1.28,0,1,0,1.72,1.65L47.92,38a1.28,1.28,0,0,0,2.36,1,1.33,1.33,0,0,0,0-.92A1.27,1.27,0,0,0,50.94,37.39Z" transform="translate(-20.53 -7.3)"/><path class="cls-9" d="M56.42,39.26l-.49-.61,0,0a3.13,3.13,0,0,0-5,.46,3.39,3.39,0,0,0-.59,1.53L48,57.25l1.52.47L56.63,43A3.19,3.19,0,0,0,56.42,39.26Z" transform="translate(-20.53 -7.3)"/><path class="cls-1" d="M45.13,56H32.37v4.26a5.65,5.65,0,0,0,2.15,4.43,1.39,1.39,0,0,1,1.62.18,2.13,2.13,0,0,1,3.19,1.06h5.8A2.83,2.83,0,0,1,48,68.74v5.67a7.09,7.09,0,0,0,7.09-7.09V65.91A9.93,9.93,0,0,0,45.13,56Z" transform="translate(-20.53 -7.3)"/><path class="cls-10" d="M55.05,67.32A7.09,7.09,0,0,1,48,74.41V68.74a2.85,2.85,0,0,0-.39-1.42l1.36.87A1.28,1.28,0,0,0,50.52,68h0a1.27,1.27,0,0,1,1.54-.2l.72.42a1.27,1.27,0,0,0,1.55-.2Z" transform="translate(-20.53 -7.3)"/><path class="cls-3" d="M45.13,56H32.37v4.26a5.65,5.65,0,0,0,2.15,4.43,1.39,1.39,0,0,1,1.62.18,2.13,2.13,0,0,1,3.19,1.06h5.8A2.83,2.83,0,0,1,48,68.74v5.67a7.09,7.09,0,0,0,7.09-7.09V65.91A9.93,9.93,0,0,0,45.13,56Z" transform="translate(-20.53 -7.3)"/><polygon class="cls-8" points="0.5 0.5 27.43 0.5 27.43 13.26 15.03 13.26 20.34 23.18 10.78 13.26 0.5 13.26 0.5 0.5"/><path class="cls-1" d="M25.56,15.74V13.42c0-.09.05-.14.15-.14h.12a.16.16,0,0,1,.17.12l0,0c0,.11.1.14.2.08a1.72,1.72,0,0,1,1-.28.87.87,0,0,1,.68.28.13.13,0,0,0,.21,0,1.74,1.74,0,0,1,1-.32c.57,0,.91.36.91,1v1.48c0,.09-.05.14-.15.14h-.31a.13.13,0,0,1-.15-.14V14.3c0-.34-.17-.54-.49-.54a1.49,1.49,0,0,0-.73.27c-.08.05-.1.09-.1.15v1.56a.13.13,0,0,1-.14.14h-.32a.13.13,0,0,1-.14-.14V14.29a.47.47,0,0,0-.49-.53,1.58,1.58,0,0,0-.73.26.21.21,0,0,0-.11.19v1.53a.13.13,0,0,1-.14.14h-.31C25.61,15.88,25.56,15.83,25.56,15.74Z" transform="translate(-20.53 -7.3)"/><path class="cls-1" d="M31.65,14.43h.52c.1,0,.16,0,.16-.14a.52.52,0,0,0-.57-.55.55.55,0,0,0-.55.34.15.15,0,0,1-.16.12h-.27a.12.12,0,0,1-.13-.16,1.16,1.16,0,0,1,2.27.35v1.35a.13.13,0,0,1-.14.14h-.1a.16.16,0,0,1-.17-.11l0,0a.13.13,0,0,0-.21-.06,1.64,1.64,0,0,1-.89.27.77.77,0,0,1-.85-.73C30.54,14.73,31,14.42,31.65,14.43Zm-.1,1a1.32,1.32,0,0,0,.68-.23.21.21,0,0,0,.1-.18v0a.14.14,0,0,0-.16-.15h-.5c-.36,0-.52.11-.52.3S31.32,15.44,31.55,15.44Z" transform="translate(-20.53 -7.3)"/><path class="cls-1" d="M33.62,15.74V13.42c0-.09.05-.14.15-.14h.12a.16.16,0,0,1,.17.12v0c0,.11.11.14.21.08a1.72,1.72,0,0,1,1-.28.87.87,0,0,1,.68.28.13.13,0,0,0,.21,0,1.74,1.74,0,0,1,1-.32c.57,0,.91.36.91,1v1.48c0,.09,0,.14-.15.14h-.31a.13.13,0,0,1-.15-.14V14.3c0-.34-.17-.54-.49-.54a1.49,1.49,0,0,0-.73.27c-.08.05-.1.09-.1.15v1.56a.13.13,0,0,1-.14.14h-.32a.13.13,0,0,1-.14-.14V14.29a.47.47,0,0,0-.49-.53,1.57,1.57,0,0,0-.74.26.23.23,0,0,0-.1.19v1.53a.13.13,0,0,1-.14.14h-.31C33.67,15.88,33.62,15.83,33.62,15.74Z" transform="translate(-20.53 -7.3)"/><path class="cls-1" d="M38.76,13.42c0-.09.05-.14.15-.14h.31a.13.13,0,0,1,.15.14v1.46c0,.33.16.52.46.52a1.47,1.47,0,0,0,.66-.22A.18.18,0,0,0,40.6,15V13.42a.13.13,0,0,1,.14-.14h.32a.13.13,0,0,1,.14.14v2.32a.13.13,0,0,1-.14.14h-.13a.16.16,0,0,1-.17-.12v0a.13.13,0,0,0-.21-.07,1.72,1.72,0,0,1-.91.26c-.54,0-.88-.36-.88-1Z" transform="translate(-20.53 -7.3)"/><path class="cls-1" d="M41.69,13.65v-.23a.13.13,0,0,1,.15-.14H42s0,0,0-.06v-.4a.16.16,0,0,1,.12-.17l.31-.07c.09,0,.16,0,.16.13v.51s0,.06,0,.06h.71c.1,0,.15.05.15.14v.23c0,.09,0,.14-.15.14h-.71a0,0,0,0,0,0,.05V15c0,.24.09.36.31.36a1.42,1.42,0,0,0,.42-.06c.1,0,.16,0,.17.11l0,.22a.14.14,0,0,1-.11.17,2.25,2.25,0,0,1-.62.09c-.43,0-.8-.22-.8-.87V13.84s0-.05-.06-.05h-.16A.13.13,0,0,1,41.69,13.65Z" transform="translate(-20.53 -7.3)"/></svg>