<svg id="Vrstva_1" data-name="Vrstva 1" xmlns="http://www.w3.org/2000/svg" viewBox="0 0 44.94 64.78"><defs><style>.cls-1,.cls-5{fill:#f28a1f;}.cls-12,.cls-2,.cls-4,.cls-7{fill:#fff;}.cls-2,.cls-7{stroke:#fff;}.cls-10,.cls-11,.cls-12,.cls-13,.cls-14,.cls-2,.cls-3,.cls-5,.cls-6,.cls-7,.cls-8,.cls-9{stroke-linecap:round;stroke-linejoin:round;}.cls-13,.cls-3{fill:none;}.cls-10,.cls-11,.cls-12,.cls-13,.cls-14,.cls-3,.cls-5,.cls-6,.cls-8,.cls-9{stroke:#1a1a1a;}.cls-14,.cls-6{fill:#1a1a1a;}.cls-7{stroke-width:0.71px;}.cls-8{fill:#ffec00;}.cls-9{fill:#35a8e0;}.cls-10{fill:#bd1622;}.cls-11{fill:#b1b1b1;}.cls-13,.cls-14{stroke-width:0.5px;}</style></defs><title>level2</title><path class="cls-1" d="M43.9,56.4a9.92,9.92,0,0,1,9.92-9.92h1.42a7.08,7.08,0,0,1,7.08,7.09H56.65a2.83,2.83,0,0,0-2.83,2.83v7.09a5.67,5.67,0,0,1-5.67,5.67H43.9Z" transform="translate(-17.89 -6.3)"/><path class="cls-2" d="M55.24,46.48a7.08,7.08,0,0,1,7.08,7.09H56.65a2.78,2.78,0,0,0-1.41.39l.87-1.37A1.27,1.27,0,0,0,55.93,51h0a1.27,1.27,0,0,1-.2-1.54l.43-.72A1.29,1.29,0,0,0,56,47.2Z" transform="translate(-17.89 -6.3)"/><path class="cls-3" d="M43.9,56.4a9.92,9.92,0,0,1,9.92-9.92h1.42a7.08,7.08,0,0,1,7.08,7.09H56.65a2.83,2.83,0,0,0-2.83,2.83v7.09a5.67,5.67,0,0,1-5.67,5.67H43.9Z" transform="translate(-17.89 -6.3)"/><path class="cls-1" d="M42.18,52.55a3.59,3.59,0,0,1-.69-1.74h0A3.89,3.89,0,0,1,42.81,48a5.37,5.37,0,0,0,1.64-5.12c-.47-2.17-2.36.19-4.71-.26-4-.77-7.5-2.11-7.5,1.42a5.41,5.41,0,0,0,1.83,4,3.71,3.71,0,0,1,1.25,2.74h0a3.59,3.59,0,0,1-.69,1.74c-.14.23-.76,1.08-1.51,2.11a16.08,16.08,0,0,0-3,12.25,3.29,3.29,0,0,0,.07.36h0a3,3,0,0,0,3,2.28H43.59a3,3,0,0,0,3-2.28h0a3.29,3.29,0,0,0,.07-.36,16.12,16.12,0,0,0-3-12.25C42.94,53.63,42.33,52.78,42.18,52.55Z" transform="translate(-17.89 -6.3)"/><path class="cls-4" d="M43.88,68c0-.07,0-.15,0-.24a10.73,10.73,0,0,0-2-8.17c-.5-.69-.91-1.25-1-1.4a2.37,2.37,0,0,1-.46-1.16,2.61,2.61,0,0,1,.88-1.88A3.63,3.63,0,0,0,42.48,53l-.3-.43a3.59,3.59,0,0,1-.69-1.74,3.08,3.08,0,0,1,.08-.68,4.09,4.09,0,0,0-2.28-1.28,4.29,4.29,0,0,0-4,1.28,3.81,3.81,0,0,1,.07.67h0a3.59,3.59,0,0,1-.69,1.74l-.29.42a3.64,3.64,0,0,0,1.17,2.25,2.46,2.46,0,0,1,.84,1.83h0a2.37,2.37,0,0,1-.46,1.16c-.1.15-.51.71-1,1.4a10.72,10.72,0,0,0-2,8.17c0,.09,0,.17,0,.24h0a2,2,0,0,0,2,1.52h6.91A2,2,0,0,0,43.88,68Z" transform="translate(-17.89 -6.3)"/><path class="cls-3" d="M42.18,52.55a3.59,3.59,0,0,1-.69-1.74h0A3.89,3.89,0,0,1,42.81,48a5.37,5.37,0,0,0,1.64-5.12c-.47-2.17-2.36.19-4.71-.26-4-.77-7.5-2.11-7.5,1.42a5.41,5.41,0,0,0,1.83,4,3.71,3.71,0,0,1,1.25,2.74h0a3.59,3.59,0,0,1-.69,1.74c-.14.23-.76,1.08-1.51,2.11a16.08,16.08,0,0,0-3,12.25,3.29,3.29,0,0,0,.07.36h0a3,3,0,0,0,3,2.28H43.59a3,3,0,0,0,3-2.28h0a3.29,3.29,0,0,0,.07-.36,16.12,16.12,0,0,0-3-12.25C42.94,53.63,42.33,52.78,42.18,52.55Z" transform="translate(-17.89 -6.3)"/><path class="cls-5" d="M36.32,38.29a4.73,4.73,0,0,0-1-1.35c-1.66-1.66-5.41-1.8-5.41-1.8s.14,3.75,1.8,5.41a6.14,6.14,0,0,0,.76.65" transform="translate(-17.89 -6.3)"/><path class="cls-5" d="M44.56,41a5.21,5.21,0,0,0,.52-.46c1.66-1.66,1.81-5.41,1.81-5.41s-3.76.14-5.42,1.8a5.08,5.08,0,0,0-.95,1.26" transform="translate(-17.89 -6.3)"/><path class="cls-1" d="M46.31,46.67c.12-.52-.81-1.05-.81-1.61a7.09,7.09,0,1,0-14.17,0c0,.56-.93,1.09-.81,1.61,2.62.61,5.68,2.67,6.29,5.29a7.1,7.1,0,0,0,1.61.19A7,7,0,0,0,40,52C40.63,49.34,43.69,47.28,46.31,46.67Z" transform="translate(-17.89 -6.3)"/><path class="cls-4" d="M45.43,45.09c-2.39.82-4.86,1.7-5.41,4a7,7,0,0,1-1.6.19,7.1,7.1,0,0,1-1.61-.19c-.54-2.33-3-3.21-5.41-4,0,.32-.07-.36-.07,0,0,.56-.93,1.09-.81,1.61,2.62.61,5.68,2.67,6.29,5.29a7.1,7.1,0,0,0,1.61.19A7,7,0,0,0,40,52c.61-2.62,3.67-4.68,6.29-5.29.12-.52-.81-1.05-.81-1.61C45.5,44.73,45.47,45.41,45.43,45.09Z" transform="translate(-17.89 -6.3)"/><path class="cls-3" d="M46.31,46.67c.12-.52-.81-1.05-.81-1.61a7.09,7.09,0,1,0-14.17,0c0,.56-.93,1.09-.81,1.61,2.62.61,5.68,2.67,6.29,5.29a7.1,7.1,0,0,0,1.61.19A7,7,0,0,0,40,52C40.63,49.34,43.69,47.28,46.31,46.67Z" transform="translate(-17.89 -6.3)"/><circle class="cls-6" cx="16.99" cy="38.06" r="0.71"/><ellipse class="cls-7" cx="17.94" cy="37.59" rx="0.49" ry="0.12"/><circle class="cls-6" cx="23.96" cy="38.06" r="0.71"/><ellipse class="cls-7" cx="24.92" cy="37.59" rx="0.49" ry="0.12"/><circle class="cls-8" cx="24.05" cy="57.9" r="2.13"/><path class="cls-9" d="M39.93,63.19l1-1h0c-.65-1.92-1-2.51-2.84-3.42l-1.17-.59-1,1,.59,1.17c.91,1.81,1.5,2.19,3.42,2.83Z" transform="translate(-17.89 -6.3)"/><path class="cls-10" d="M34.33,60.78l1.59-1.59,1-1,1.59-1.59c.9-.9,1.13-.41,2.42-.41l-2-2-3,3-1,1-3,3,2,2C33.92,61.91,33.43,61.68,34.33,60.78Z" transform="translate(-17.89 -6.3)"/><polygon class="cls-11" points="1 37.86 0.5 34.35 4.01 34.85 18.04 50.89 17.04 51.89 1 37.86"/><path class="cls-12" d="M34.47,60.4h4.25a1.42,1.42,0,0,1,1.42,1.42v0a1.42,1.42,0,0,1-1.42,1.42H35.88a1.42,1.42,0,0,1-1.42-1.42V60.4a0,0,0,0,1,0,0Z" transform="translate(36.75 -14.57) rotate(45)"/><line class="cls-12" x1="19.42" y1="55.52" x2="20.42" y2="54.52"/><line class="cls-12" x1="18.41" y1="54.52" x2="19.42" y2="53.52"/><path class="cls-12" d="M37.89,58.39h2.83a1.42,1.42,0,0,1,1.42,1.42v0a1.42,1.42,0,0,1-1.42,1.42H36.47a0,0,0,0,1,0,0V59.81A1.42,1.42,0,0,1,37.89,58.39Z" transform="translate(35.92 -16.57) rotate(45)"/><line class="cls-12" x1="21.42" y1="53.52" x2="20.42" y2="54.52"/><line class="cls-12" x1="20.42" y1="52.51" x2="19.42" y2="53.52"/><path class="cls-12" d="M14.67,61.44h2.83a1.42,1.42,0,0,1,1.42,1.42v0a1.42,1.42,0,0,1-1.42,1.42H13.26a0,0,0,0,1,0,0V62.86A1.42,1.42,0,0,1,14.67,61.44Z"/><line class="cls-12" x1="16.09" y1="62.86" x2="16.09" y2="64.28"/><line class="cls-12" x1="14.67" y1="62.86" x2="14.67" y2="64.28"/><path class="cls-12" d="M39.65,67.74H43.9a1.42,1.42,0,0,1,1.42,1.42v0a1.42,1.42,0,0,1-1.42,1.42H41.06a1.42,1.42,0,0,1-1.42-1.42V67.74a0,0,0,0,1,0,0Z" transform="translate(67.07 132.02) rotate(180)"/><line class="cls-12" x1="24.59" y1="62.86" x2="24.59" y2="64.28"/><line class="cls-12" x1="26.01" y1="62.86" x2="26.01" y2="64.28"/><line class="cls-13" x1="19.94" y1="37.19" x2="23.95" y2="33.18"/><line class="cls-13" x1="19.94" y1="35.19" x2="21.95" y2="37.19"/><line class="cls-13" x1="20.95" y1="34.18" x2="22.95" y2="36.19"/><line class="cls-13" x1="21.95" y1="33.18" x2="23.95" y2="35.19"/><path class="cls-14" d="M39.12,48.35a.7.7,0,0,0-.7.71.71.71,0,1,0-1.42,0c0,.39,1.42,1.42,1.42,1.42s1.41-1,1.41-1.42A.71.71,0,0,0,39.12,48.35Z" transform="translate(-17.89 -6.3)"/><polygon class="cls-12" points="7.59 0.5 34.52 0.5 34.52 13.26 22.11 13.26 20.34 26.01 17.86 13.26 7.59 13.26 7.59 0.5"/><path class="cls-1" d="M29.39,14.53l1.39-1.63c0-.07,0-.12-.05-.12H29.54a.14.14,0,0,1-.15-.15v-.21c0-.09.05-.14.15-.14h1.92a.12.12,0,0,1,.14.13v.19a.32.32,0,0,1-.06.17l-1.26,1.5c-.05.06,0,.11,0,.11h1.2a.14.14,0,0,1,.15.15v.21a.13.13,0,0,1-.15.14H29.46a.12.12,0,0,1-.13-.13V14.7A.25.25,0,0,1,29.39,14.53Z" transform="translate(-17.89 -6.3)"/><path class="cls-1" d="M33.12,13.43h.52c.1,0,.15,0,.15-.14a.52.52,0,0,0-.57-.55.56.56,0,0,0-.55.34.15.15,0,0,1-.16.12h-.26c-.1,0-.16-.06-.14-.16a1.07,1.07,0,0,1,1.14-.81,1.05,1.05,0,0,1,1.14,1.16v1.35a.13.13,0,0,1-.15.14h-.09a.16.16,0,0,1-.17-.11l0,0q-.06-.15-.21-.06a1.61,1.61,0,0,1-.89.27A.76.76,0,0,1,32,14.2C32,13.73,32.44,13.42,33.12,13.43Zm-.11,1a1.35,1.35,0,0,0,.69-.23.2.2,0,0,0,.09-.18v0a.14.14,0,0,0-.15-.15h-.51c-.35,0-.51.11-.51.3S32.79,14.44,33,14.44Z" transform="translate(-17.89 -6.3)"/><path class="cls-1" d="M36.32,14.74V11.12a.13.13,0,0,1,.14-.14h.32a.13.13,0,0,1,.14.14v2.16c0,.17.08.2.2.08l.91-1a.23.23,0,0,1,.18-.08h.36c.13,0,.17.08.08.18l-.75.79a.15.15,0,0,0,0,.21l.88,1.24c.07.1,0,.18-.09.18h-.37a.2.2,0,0,1-.18-.09l-.62-.89a.12.12,0,0,0-.21,0l-.3.29a.29.29,0,0,0-.08.19v.37a.13.13,0,0,1-.14.14h-.32A.13.13,0,0,1,36.32,14.74Z" transform="translate(-17.89 -6.3)"/><path class="cls-1" d="M39.25,14.74V12.42c0-.09,0-.14.15-.14h.13a.15.15,0,0,1,.16.12l0,0c0,.11.11.13.21.07a1.37,1.37,0,0,1,.76-.28h.14a.14.14,0,0,1,.12.17l0,.3c0,.1-.07.13-.16.12h-.18a1.07,1.07,0,0,0-.6.24.22.22,0,0,0-.1.2v1.48a.13.13,0,0,1-.15.14H39.4C39.3,14.88,39.25,14.83,39.25,14.74Z" transform="translate(-17.89 -6.3)"/><path class="cls-1" d="M42.21,13.43h.52c.1,0,.16,0,.16-.14a.52.52,0,0,0-.57-.55.55.55,0,0,0-.55.34.15.15,0,0,1-.16.12h-.27a.12.12,0,0,1-.13-.16,1.16,1.16,0,0,1,2.27.35v1.35a.13.13,0,0,1-.14.14h-.1a.16.16,0,0,1-.17-.11l0,0a.13.13,0,0,0-.21-.06,1.64,1.64,0,0,1-.89.27.77.77,0,0,1-.85-.73C41.1,13.73,41.53,13.42,42.21,13.43Zm-.1,1a1.32,1.32,0,0,0,.68-.23.21.21,0,0,0,.1-.18v0a.14.14,0,0,0-.16-.15h-.5c-.36,0-.52.11-.52.3S41.88,14.44,42.11,14.44Zm.76-3.28.12.24a.13.13,0,0,1-.08.19l-.91.35a.13.13,0,0,1-.19-.06l0-.06a.13.13,0,0,1,0-.2l.84-.51A.12.12,0,0,1,42.87,11.16Z" transform="translate(-17.89 -6.3)"/><path class="cls-1" d="M44.8,11.12v3.62a.13.13,0,0,1-.15.14h-.32a.13.13,0,0,1-.14-.14V11.12a.13.13,0,0,1,.14-.14h.32A.13.13,0,0,1,44.8,11.12Z" transform="translate(-17.89 -6.3)"/><path class="cls-1" d="M46.71,12.23A1.27,1.27,0,0,1,48,13.6a.15.15,0,0,1-.16.15H46.14a.13.13,0,0,0-.14.18.73.73,0,0,0,.72.51.61.61,0,0,0,.57-.28.18.18,0,0,1,.17-.11h.28c.1,0,.16.06.13.16a1.18,1.18,0,0,1-1.15.73,1.32,1.32,0,0,1-1.35-1.36A1.29,1.29,0,0,1,46.71,12.23Zm-.54,1.09h1c.11,0,.17-.07.13-.17a.63.63,0,0,0-.6-.42.73.73,0,0,0-.66.41C46,13.24,46.06,13.32,46.17,13.32Z" transform="translate(-17.89 -6.3)"/></svg>