<svg id="Vrstva_1" data-name="Vrstva 1" xmlns="http://www.w3.org/2000/svg" viewBox="0 0 40.69 64.78"><defs><style>.cls-1,.cls-5{fill:#f28a1f;}.cls-10,.cls-2,.cls-4,.cls-7{fill:#fff;}.cls-2,.cls-7{stroke:#fff;}.cls-10,.cls-11,.cls-2,.cls-3,.cls-5,.cls-6,.cls-7,.cls-8{stroke-linecap:round;stroke-linejoin:round;}.cls-3{fill:none;}.cls-10,.cls-11,.cls-3,.cls-5,.cls-6,.cls-8{stroke:#1a1a1a;}.cls-6,.cls-8,.cls-9{fill:#1a1a1a;}.cls-7{stroke-width:0.71px;}.cls-8{stroke-width:0.5px;}.cls-11{fill:#008d36;}</style></defs><title>level3</title><path class="cls-1" d="M36.25,55.4a9.92,9.92,0,0,0-9.92-9.92H24.91a7.08,7.08,0,0,0-7.08,7.09H23.5a2.83,2.83,0,0,1,2.83,2.83v7.09A5.67,5.67,0,0,0,32,68.16h4.25Z" transform="translate(-17.33 -5.3)"/><path class="cls-2" d="M24.91,45.48a7.08,7.08,0,0,0-7.08,7.09H23.5a2.81,2.81,0,0,1,1.41.39L24,51.59A1.27,1.27,0,0,1,24.22,50h0a1.27,1.27,0,0,0,.2-1.54L24,47.75a1.29,1.29,0,0,1,.2-1.55Z" transform="translate(-17.33 -5.3)"/><path class="cls-3" d="M36.25,55.4a9.92,9.92,0,0,0-9.92-9.92H24.91a7.08,7.08,0,0,0-7.08,7.09H23.5a2.83,2.83,0,0,1,2.83,2.83v7.09A5.67,5.67,0,0,0,32,68.16h4.25Z" transform="translate(-17.33 -5.3)"/><path class="cls-1" d="M40,51.16a3.59,3.59,0,0,1-.69-1.74h0a3.88,3.88,0,0,1,1.32-2.81,5.38,5.38,0,0,0,1.64-5.13c-.47-2.16-2.36-2.63-4.71-3.09-4-.76-7.5.73-7.5,4.26a5.43,5.43,0,0,0,1.83,4,3.72,3.72,0,0,1,1.26,2.74h0a3.59,3.59,0,0,1-.69,1.74c-.15.23-.77,1.08-1.52,2.11a16.13,16.13,0,0,0-3,12.25c0,.13.05.25.07.36h0a3,3,0,0,0,3,2.28H41.44a3,3,0,0,0,3-2.28h0c0-.11,0-.23.07-.36a16.13,16.13,0,0,0-3-12.25C40.79,52.24,40.18,51.39,40,51.16Z" transform="translate(-17.33 -5.3)"/><path class="cls-4" d="M41.73,66.64c0-.07,0-.15.05-.24a10.76,10.76,0,0,0-2-8.17c-.51-.69-.92-1.25-1-1.4a2.45,2.45,0,0,1-.45-1.16,2.61,2.61,0,0,1,.88-1.88,3.65,3.65,0,0,0,1.14-2.2c-.15-.2-.26-.35-.31-.43a3.59,3.59,0,0,1-.69-1.74,3.83,3.83,0,0,1,.08-.68,4.07,4.07,0,0,0-2.27-1.28,4.31,4.31,0,0,0-4,1.28,3.07,3.07,0,0,1,.08.67h0a3.59,3.59,0,0,1-.69,1.74l-.3.42a3.65,3.65,0,0,0,1.18,2.25,2.49,2.49,0,0,1,.83,1.83h0a2.37,2.37,0,0,1-.46,1.16c-.09.15-.5.71-1,1.4a10.76,10.76,0,0,0-2,8.17c0,.09,0,.17.05.24h0a2,2,0,0,0,2,1.52h6.91A2,2,0,0,0,41.73,66.64Z" transform="translate(-17.33 -5.3)"/><path class="cls-3" d="M40,51.16a3.59,3.59,0,0,1-.69-1.74h0a3.88,3.88,0,0,1,1.32-2.81,5.38,5.38,0,0,0,1.64-5.13c-.47-2.16-2.36-2.63-4.71-3.09-4-.76-7.5.73-7.5,4.26a5.43,5.43,0,0,0,1.83,4,3.72,3.72,0,0,1,1.26,2.74h0a3.59,3.59,0,0,1-.69,1.74c-.15.23-.77,1.08-1.52,2.11a16.13,16.13,0,0,0-3,12.25c0,.13.05.25.07.36h0a3,3,0,0,0,3,2.28H41.44a3,3,0,0,0,3-2.28h0c0-.11,0-.23.07-.36a16.13,16.13,0,0,0-3-12.25C40.79,52.24,40.18,51.39,40,51.16Z" transform="translate(-17.33 -5.3)"/><path class="cls-5" d="M34.17,37.29a4.73,4.73,0,0,0-1-1.35c-1.66-1.66-5.41-1.8-5.41-1.8s.14,3.75,1.8,5.41a6.14,6.14,0,0,0,.76.65" transform="translate(-17.33 -5.3)"/><path class="cls-5" d="M42.42,40a5.21,5.21,0,0,0,.52-.46c1.66-1.66,1.81-5.41,1.81-5.41s-3.76.14-5.42,1.8a5.08,5.08,0,0,0-.95,1.26" transform="translate(-17.33 -5.3)"/><path class="cls-1" d="M44.17,45.67c.12-.52-.81-1.05-.81-1.61a7.09,7.09,0,1,0-14.18,0c0,.56-.93,1.09-.81,1.61,2.62.61,5.68,2.67,6.29,5.29a6.92,6.92,0,0,0,3.22,0C38.49,48.34,41.54,46.28,44.17,45.67Z" transform="translate(-17.33 -5.3)"/><path class="cls-4" d="M43.28,44.09c-2.38.82-4.86,1.7-5.4,4a6.92,6.92,0,0,1-3.22,0c-.54-2.33-3-3.21-5.4-4-.05.32-.08-.36-.08,0,0,.56-.93,1.09-.81,1.61,2.62.61,5.68,2.67,6.29,5.29a6.92,6.92,0,0,0,3.22,0c.61-2.62,3.67-4.68,6.29-5.29.12-.52-.81-1.05-.81-1.61C43.36,43.73,43.33,44.41,43.28,44.09Z" transform="translate(-17.33 -5.3)"/><path class="cls-3" d="M44.17,45.67c.12-.52-.81-1.05-.81-1.61a7.09,7.09,0,1,0-14.18,0c0,.56-.93,1.09-.81,1.61,2.62.61,5.68,2.67,6.29,5.29a6.92,6.92,0,0,0,3.22,0C38.49,48.34,41.54,46.28,44.17,45.67Z" transform="translate(-17.33 -5.3)"/><path class="cls-6" d="M33.43,43.35a.71.71,0,1,1-1.41,0C32,43,33.43,43,33.43,43.35Z" transform="translate(-17.33 -5.3)"/><path class="cls-7" d="M32.83,42.94a2.27,2.27,0,0,0-1,0c0,.07.22.12.49.12S32.83,43,32.83,42.94Z" transform="translate(-17.33 -5.3)"/><path class="cls-8" d="M37,47.26a.71.71,0,0,0-.71.71.71.71,0,0,0-1.42,0c0,.39,1.42,1.42,1.42,1.42s1.42-1,1.42-1.42A.71.71,0,0,0,37,47.26Z" transform="translate(-17.33 -5.3)"/><path class="cls-6" d="M40.41,43.35a.71.71,0,1,1-1.42,0C39,43,40.41,43,40.41,43.35Z" transform="translate(-17.33 -5.3)"/><path class="cls-7" d="M40.53,42.94a2.31,2.31,0,0,0-1,0c0,.07.22.12.49.12S40.53,43,40.53,42.94Z" transform="translate(-17.33 -5.3)"/><rect class="cls-9" x="14.7" y="40.19" width="2.83" height="1.42" rx="0.28" ry="0.28"/><rect class="cls-9" x="20.37" y="40.19" width="2.83" height="1.42" rx="0.28" ry="0.28"/><line class="cls-3" x1="34.52" y1="47.27" x2="34.52" y2="48.69"/><path class="cls-6" d="M44.76,54H36.25L34.83,55.4H20.66v5.67l7.53-2.51a.56.56,0,0,1,.72.68l-1.16,4.67h2.83L32,58.24h1.39A19.93,19.93,0,0,0,36.27,58l1.4-.2v6.08H40.5a10,10,0,0,1-.25-6.45l4.51-.64V55.4h8.5V54Z" transform="translate(-17.33 -5.3)"/><path class="cls-10" d="M40.5,56.82h2.83a1.42,1.42,0,0,1,1.42,1.42v0a1.42,1.42,0,0,1-1.42,1.42H39.09a0,0,0,0,1,0,0V58.24a1.42,1.42,0,0,1,1.42-1.42Z" transform="translate(66.52 111.18) rotate(180)"/><line class="cls-10" x1="24.59" y1="52.94" x2="24.59" y2="51.52"/><line class="cls-10" x1="26.01" y1="52.94" x2="26.01" y2="51.52"/><path class="cls-10" d="M30.58,59.65h4.25a1.42,1.42,0,0,1,1.42,1.42v0a1.42,1.42,0,0,1-1.42,1.42H32a1.42,1.42,0,0,1-1.42-1.42V59.65a0,0,0,0,1,0,0Z" transform="translate(63.46 4.76) rotate(71.57)"/><line class="cls-10" x1="16.09" y1="55.78" x2="17.44" y2="55.33"/><line class="cls-10" x1="15.64" y1="54.43" x2="16.99" y2="53.98"/><path class="cls-10" d="M13.26,61.44h2.83a1.42,1.42,0,0,1,1.42,1.42v0a1.42,1.42,0,0,1-1.42,1.42H11.84a0,0,0,0,1,0,0V62.86a1.42,1.42,0,0,1,1.42-1.42Z"/><line class="cls-10" x1="14.67" y1="62.86" x2="14.67" y2="64.28"/><line class="cls-10" x1="13.26" y1="62.86" x2="13.26" y2="64.28"/><path class="cls-10" d="M37.67,66.74h4.25a1.42,1.42,0,0,1,1.42,1.42v0a1.42,1.42,0,0,1-1.42,1.42H39.09a1.42,1.42,0,0,1-1.42-1.42V66.74A0,0,0,0,1,37.67,66.74Z" transform="translate(63.68 131.02) rotate(180)"/><line class="cls-10" x1="23.18" y1="62.86" x2="23.18" y2="64.28"/><line class="cls-10" x1="24.59" y1="62.86" x2="24.59" y2="64.28"/><path class="cls-11" d="M43.05,41.23a6.53,6.53,0,0,0-5.38-5.54c-.48-.09-2.37-.13-2.84-.13-3.42,0-5,2.43-5.66,5.67Z" transform="translate(-17.33 -5.3)"/><polygon class="cls-10" points="40.19 0.5 13.26 0.5 13.26 17.51 25.66 17.51 20.34 27.43 29.91 17.51 40.19 17.51 40.19 0.5"/><path class="cls-1" d="M34.83,15.37l1.39-1.64c.05-.06,0-.12,0-.12H35c-.1,0-.15,0-.15-.14v-.21a.14.14,0,0,1,.15-.15H36.9a.12.12,0,0,1,.13.13v.2a.25.25,0,0,1-.06.16l-1.25,1.5c0,.07,0,.12.05.12H37a.13.13,0,0,1,.14.14v.21a.13.13,0,0,1-.14.15H34.9a.13.13,0,0,1-.14-.13v-.06A.24.24,0,0,1,34.83,15.37Z" transform="translate(-17.33 -5.3)"/><path class="cls-1" d="M38.56,14.26h.51c.1,0,.16,0,.16-.14a.51.51,0,0,0-.57-.54.55.55,0,0,0-.55.33A.15.15,0,0,1,38,14h-.26c-.11,0-.16-.06-.14-.16a1.16,1.16,0,0,1,2.27.35v1.35a.13.13,0,0,1-.14.15h-.1a.16.16,0,0,1-.17-.11l0-.06a.13.13,0,0,0-.21-.06,1.65,1.65,0,0,1-.89.28.77.77,0,0,1-.84-.74C37.45,14.56,37.88,14.25,38.56,14.26Zm-.11,1a1.32,1.32,0,0,0,.68-.23.2.2,0,0,0,.1-.18v0a.14.14,0,0,0-.16-.15h-.5c-.36,0-.52.1-.52.3S38.22,15.27,38.45,15.27Z" transform="translate(-17.33 -5.3)"/><path class="cls-1" d="M41.51,13.11h.4a.15.15,0,0,1,.16.12l.6,1.8c0,.08.1.08.13,0l.62-1.8a.15.15,0,0,1,.16-.12h.36c.11,0,.16.07.12.17l-1,2.31a.2.2,0,0,1-.2.13h-.38a.2.2,0,0,1-.19-.13l-.94-2.31C41.36,13.18,41.4,13.11,41.51,13.11Z" transform="translate(-17.33 -5.3)"/><path class="cls-1" d="M45.13,12v3.61a.13.13,0,0,1-.14.15h-.32a.13.13,0,0,1-.14-.15V12a.13.13,0,0,1,.14-.15H45A.13.13,0,0,1,45.13,12Z" transform="translate(-17.33 -5.3)"/><path class="cls-1" d="M46.81,14.26h.51c.1,0,.16,0,.16-.14a.51.51,0,0,0-.57-.54.55.55,0,0,0-.55.33.15.15,0,0,1-.16.12h-.26c-.11,0-.16-.06-.14-.16a1.16,1.16,0,0,1,2.27.35v1.35a.13.13,0,0,1-.14.15h-.1a.16.16,0,0,1-.17-.11l0-.06a.13.13,0,0,0-.21-.06,1.65,1.65,0,0,1-.89.28A.77.77,0,0,1,45.7,15C45.7,14.56,46.13,14.25,46.81,14.26Zm-.11,1a1.32,1.32,0,0,0,.68-.23.2.2,0,0,0,.1-.18v0a.14.14,0,0,0-.16-.15h-.5c-.36,0-.52.1-.52.3S46.47,15.27,46.7,15.27Z" transform="translate(-17.33 -5.3)"/><path class="cls-1" d="M49.78,13.06a1,1,0,0,1,1.1.77c0,.09,0,.15-.14.15h-.27c-.09,0-.13,0-.16-.13s-.22-.31-.54-.31-.49.11-.49.27c0,.55,1.66.15,1.66,1.18,0,.5-.47.78-1.12.78A1.13,1.13,0,0,1,48.59,15a.12.12,0,0,1,.13-.16H49a.17.17,0,0,1,.17.12.65.65,0,0,0,.66.35c.32,0,.52-.1.51-.3,0-.55-1.65-.14-1.65-1.17C48.69,13.39,49.07,13.06,49.78,13.06Z" transform="translate(-17.33 -5.3)"/><path class="cls-1" d="M51.24,13.48v-.22a.14.14,0,0,1,.15-.15h.19a0,0,0,0,0,.05,0v-.41a.15.15,0,0,1,.12-.16l.3-.08c.11,0,.16,0,.16.13v.52a.06.06,0,0,0,.06,0H53a.14.14,0,0,1,.15.15v.22a.14.14,0,0,1-.15.15h-.71a.06.06,0,0,0-.06,0v1.2c0,.23.1.36.32.36a1.42,1.42,0,0,0,.42-.07c.1,0,.16,0,.17.12l0,.21a.15.15,0,0,1-.11.18,2.24,2.24,0,0,1-.61.09c-.45,0-.81-.23-.81-.88V13.68s0,0-.06,0h-.16A.14.14,0,0,1,51.24,13.48Z" transform="translate(-17.33 -5.3)"/></svg>