<svg id="Vrstva_1" data-name="Vrstva 1" xmlns="http://www.w3.org/2000/svg" viewBox="0 0 79.93 79.92">
    <defs>
        <style>
            .cls-1,.cls-4,.cls-7{fill:#fff;}.cls-1,.cls-3,.cls-5,.cls-6,.cls-8{stroke:#1a1a1a;}.cls-1,.cls-3,.cls-5,.cls-6,.cls-7,.cls-8{stroke-linecap:round;stroke-linejoin:round;}.cls-2,.cls-3{fill:#f28a1f;}.cls-5{fill:none;}.cls-6,.cls-8{fill:#1a1a1a;}.cls-7{stroke:#fff;stroke-width:0.71px;}.cls-8{stroke-width:0.5px;}
        </style>
    </defs>
    <title>login2</title>
    <rect class="cls-1" x="13.74" y="51.3" width="42.52" height="11.34"/>
    <path class="cls-2"
          d="M16.06,55.34v-.42a.21.21,0,0,1,.22-.23h3.45c.14,0,.21.09.21.23v.42c0,.14-.07.23-.21.23H18.64a.13.13,0,0,0-.14.14v3.87a.2.2,0,0,1-.22.22h-.61a.21.21,0,0,1-.23-.22V55.71a.13.13,0,0,0-.14-.14h-1A.21.21,0,0,1,16.06,55.34Z"/>
    <path class="cls-2"
          d="M19.7,59.55,21.38,55a.37.37,0,0,1,.39-.28h.57a.39.39,0,0,1,.4.27l1.8,4.59c.06.16,0,.25-.17.25h-.61a.25.25,0,0,1-.26-.17l-.27-.76a.15.15,0,0,0-.13-.09h-2a.13.13,0,0,0-.12.09l-.26.75a.24.24,0,0,1-.25.18h-.58C19.72,59.8,19.65,59.7,19.7,59.55Zm1.72-1.63h1.34c.07,0,.11-.05.08-.13l-.7-1.91c0-.1-.11-.1-.14,0l-.67,1.91C21.31,57.87,21.34,57.92,21.42,57.92Z"/>
    <path class="cls-2"
          d="M25.18,59.51V55a.27.27,0,0,1,.3-.3h1.67c1.14,0,1.8.63,1.8,1.42a1.09,1.09,0,0,1-.52,1c-.1.08-.1.17,0,.23a1.28,1.28,0,0,1,.64,1.12c0,.83-.72,1.38-1.84,1.38H25.48A.27.27,0,0,1,25.18,59.51Zm1.11-2.66h.8c.65,0,.88-.31.88-.69s-.35-.66-.85-.66h-.83a.12.12,0,0,0-.13.12v1.1A.12.12,0,0,0,26.29,56.85Zm0,2.15h.88c.6,0,.92-.3.92-.69s-.31-.7-1-.7h-.83c-.08,0-.13,0-.13.12v1.14A.12.12,0,0,0,26.29,59Z"/>
    <path class="cls-2"
          d="M30,59.54V54.92a.22.22,0,0,1,.23-.23h.57c.14,0,.21.09.21.23v3.86a.12.12,0,0,0,.13.13h2a.2.2,0,0,1,.22.22v.45a.2.2,0,0,1-.22.22H30.24C30.06,59.8,30,59.71,30,59.54Z"/>
    <path class="cls-2"
          d="M34,59.51V55a.27.27,0,0,1,.3-.3h2.45a.21.21,0,0,1,.22.23v.37a.21.21,0,0,1-.22.23H35.15a.12.12,0,0,0-.12.12v1.08a.12.12,0,0,0,.12.13h1.48a.2.2,0,0,1,.22.22v.38a.21.21,0,0,1-.22.23H35.15a.11.11,0,0,0-.12.12v1.05a.12.12,0,0,0,.12.13h1.68a.21.21,0,0,1,.23.22v.38a.21.21,0,0,1-.23.22H34.32A.27.27,0,0,1,34,59.51Z"/>
    <path class="cls-2"
          d="M39.62,59.58V55a.27.27,0,0,1,.3-.3H42.4a.21.21,0,0,1,.22.23v.4a.2.2,0,0,1-.22.22H40.76a.12.12,0,0,0-.13.13v1a.12.12,0,0,0,.13.13h1.61a.2.2,0,0,1,.22.22v.4a.2.2,0,0,1-.22.22H40.76a.12.12,0,0,0-.13.13v1.76a.19.19,0,0,1-.21.22h-.57A.21.21,0,0,1,39.62,59.58Z"/>
    <path class="cls-2"
          d="M45.92,54.62a2.63,2.63,0,1,1-2.74,2.61A2.6,2.6,0,0,1,45.92,54.62Zm0,4.37a1.66,1.66,0,0,0,1.71-1.76,1.71,1.71,0,1,0-3.41,0A1.66,1.66,0,0,0,45.92,59Z"/>
    <path class="cls-2"
          d="M48.79,59.53l1.67-2.23a.17.17,0,0,0,0-.22L48.93,55c-.1-.14,0-.27.14-.27h.66a.32.32,0,0,1,.28.14l1.05,1.46c.07.09.16.1.22,0l1-1.46a.3.3,0,0,1,.27-.14h.59c.19,0,.25.13.14.27l-1.52,2.11a.22.22,0,0,0,0,.22l1.62,2.24c.11.15.05.27-.13.27H52.6a.31.31,0,0,1-.28-.14L51.2,58.1a.12.12,0,0,0-.21,0l-1.16,1.56a.3.3,0,0,1-.27.14h-.64C48.73,59.8,48.68,59.68,48.79,59.53Z"/>
    <path class="cls-3"
          d="M32.9,38.86a4.73,4.73,0,0,0-1-1.35c-1.66-1.66-5.41-1.8-5.41-1.8s.14,3.75,1.8,5.41a6.14,6.14,0,0,0,.76.65"/>
    <path class="cls-3"
          d="M41.15,41.58a5.21,5.21,0,0,0,.52-.46c1.66-1.66,1.81-5.41,1.81-5.41s-3.76.14-5.42,1.8a5.08,5.08,0,0,0-1,1.26"/>
    <path class="cls-2"
          d="M42.89,47.24c.12-.52-.81-1.06-.81-1.61a7.09,7.09,0,1,0-14.17,0c0,.55-.93,1.09-.81,1.61,2.62.61,5.68,2.67,6.29,5.29a7.1,7.1,0,0,0,1.61.19,7,7,0,0,0,1.6-.19C37.21,49.91,40.27,47.85,42.89,47.24Z"/>
    <path class="cls-4"
          d="M42,45.66c-2.38.82-4.86,1.7-5.4,4a6.92,6.92,0,0,1-3.22,0c-.54-2.33-3-3.21-5.4-4,0,.32-.08-.36-.08,0,0,.55-.93,1.09-.81,1.61,2.62.61,5.68,2.67,6.29,5.29a6.92,6.92,0,0,0,3.22,0c.6-2.62,3.66-4.68,6.28-5.29.12-.52-.81-1.06-.81-1.61C42.08,45.3,42.05,46,42,45.66Z"/>
    <path class="cls-5"
          d="M42.89,47.24c.12-.52-.81-1.06-.81-1.61a7.09,7.09,0,1,0-14.17,0c0,.55-.93,1.09-.81,1.61,2.62.61,5.68,2.67,6.29,5.29a7.1,7.1,0,0,0,1.61.19,7,7,0,0,0,1.6-.19C37.21,49.91,40.27,47.85,42.89,47.24Z"/>
    <circle class="cls-6" cx="31.45" cy="44.92" r="0.71"/>
    <ellipse class="cls-7" cx="32.41" cy="44.46" rx="0.49" ry="0.12"/>
    <path class="cls-8"
          d="M35.71,48.83a.71.71,0,0,0-.71.71.71.71,0,0,0-1.42,0C33.58,49.93,35,51,35,51s1.41-1,1.41-1.41A.7.7,0,0,0,35.71,48.83Z"/>
    <path class="cls-1"
          d="M40.67,49.88h4.25a1.42,1.42,0,0,1,1.42,1.42v0a1.42,1.42,0,0,1-1.42,1.42H42.09a1.42,1.42,0,0,1-1.42-1.42V49.88a0,0,0,0,1,0,0Z"
          transform="translate(87.02 102.6) rotate(180)"/>
    <line class="cls-1" x1="43.51" y1="51.3" x2="43.51" y2="52.72"/>
    <line class="cls-1" x1="44.93" y1="51.3" x2="44.93" y2="52.72"/>
    <path class="cls-1"
          d="M25.08,49.88h2.83a1.42,1.42,0,0,1,1.42,1.42v0a1.42,1.42,0,0,1-1.42,1.42H23.67a0,0,0,0,1,0,0V51.3a1.42,1.42,0,0,1,1.42-1.42Z"/>
    <line class="cls-1" x1="26.5" y1="51.3" x2="26.5" y2="52.72"/>
    <line class="cls-1" x1="25.08" y1="51.3" x2="25.08" y2="52.72"/>
    <circle class="cls-6" cx="38.43" cy="44.92" r="0.71"/>
    <ellipse class="cls-7" cx="39.38" cy="44.46" rx="0.49" ry="0.12"/>
    <polygon class="cls-1"
             points="66.19 17.29 44.92 17.29 44.92 30.04 51.66 30.04 46.34 39.96 55.91 30.04 66.19 30.04 66.19 17.29"/>
    <path class="cls-2"
          d="M50.18,21.52V25.1a.15.15,0,0,1-.16.16h-.38a.15.15,0,0,1-.16-.16V21.52a.15.15,0,0,1,.16-.16H50A.15.15,0,0,1,50.18,21.52Z"/>
    <path class="cls-2"
          d="M52.13,22.61a1.34,1.34,0,0,1,1.42,1.33,1.42,1.42,0,1,1-1.42-1.33Zm0,2.11A.76.76,0,1,0,51.4,24,.72.72,0,0,0,52.13,24.72Z"/>
    <path class="cls-2"
          d="M55.29,22.61a1.2,1.2,0,0,1,.73.23c.08.07.15.06.18,0v0a.2.2,0,0,1,.19-.12h.13a.15.15,0,0,1,.16.16v2.37a1.19,1.19,0,0,1-1.32,1.16,1.23,1.23,0,0,1-1.23-.72.12.12,0,0,1,.13-.18h.33a.27.27,0,0,1,.19.11.71.71,0,0,0,.58.23.63.63,0,0,0,.69-.6h0c0-.1-.07-.12-.17-.06a1.06,1.06,0,0,1-.58.15,1.33,1.33,0,1,1,0-2.66Zm.05,2.07a.72.72,0,0,0,.61-.32.3.3,0,0,0,0-.18V23.7a.24.24,0,0,0,0-.17.73.73,0,0,0-.61-.33.74.74,0,0,0,0,1.48Z"/>
    <path class="cls-2"
          d="M57.3,21.85a.46.46,0,0,1,.46-.46.47.47,0,1,1-.46.46Zm.77,1V25.1a.15.15,0,0,1-.16.16h-.37a.15.15,0,0,1-.16-.16V22.82a.15.15,0,0,1,.16-.16h.37A.15.15,0,0,1,58.07,22.82Z"/>
    <path class="cls-2"
          d="M58.77,25.1V22.82a.15.15,0,0,1,.16-.16h.17a.17.17,0,0,1,.18.12v0c0,.1.1.12.19.06a1.7,1.7,0,0,1,1-.27c.58,0,.92.38.92,1.06V25.1a.15.15,0,0,1-.16.16h-.37a.15.15,0,0,1-.16-.16V23.7a.43.43,0,0,0-.45-.48,1.27,1.27,0,0,0-.66.24.17.17,0,0,0-.09.17V25.1a.15.15,0,0,1-.16.16h-.37A.15.15,0,0,1,58.77,25.1Z"/>
</svg>