<svg id="Vrstva_1" data-name="Vrstva 1" xmlns="http://www.w3.org/2000/svg" viewBox="0 0 28.35 34.02"><defs><style>.cls-1{fill:#f28a1f;}.cls-2{fill:#1a1a1a;stroke:#1a1a1a;stroke-linecap:round;stroke-linejoin:round;stroke-width:0.67px;}</style></defs><title>profil</title><rect class="cls-1" width="28.35" height="34.02" rx="2.83" ry="2.83"/><path class="cls-2" d="M38.47,32.19a9.42,9.42,0,0,0-2.2-5.95l1,.67a7.55,7.55,0,0,0,.69-.62c2.22-2.21,2.42-7.21,2.42-7.21s-5,.19-7.23,2.4a6.75,6.75,0,0,0-1.27,1.68l.38.26A9.38,9.38,0,0,0,29,22.86a9.21,9.21,0,0,0-2.8.42,6.35,6.35,0,0,0-1.32-1.8c-2.21-2.21-7.21-2.4-7.21-2.4s.18,5,2.4,7.21a7.71,7.71,0,0,0,1,.87h0a9.42,9.42,0,0,0-1.52,5s0,0,0,.08v0c0,.73-1.24,1.45-1.08,2.14h0a13.72,13.72,0,0,1,4.6,2.08,8.9,8.9,0,0,1,3.79,5h0a8.94,8.94,0,0,0,4.28,0c.82-3.49,4.9-6.24,8.39-7,.16-.69-1.08-1.4-1.08-2.14C38.48,32.2,38.48,32.17,38.47,32.19Z" transform="translate(-14.83 -11.99)"/></svg>